<?xml version="1.0" standalone="no"?>
<!DOCTYPE svg PUBLIC "-//W3C//DTD SVG 20010904//EN"
 "http://www.w3.org/TR/2001/REC-SVG-20010904/DTD/svg10.dtd">
<svg version="1.0" xmlns="http://www.w3.org/2000/svg"
 width="458.000000pt" height="692.000000pt" viewBox="0 0 458.000000 692.000000"
 preserveAspectRatio="xMidYMid meet">

<g transform="translate(0.000000,692.000000) scale(0.100000,-0.100000)"
fill="#000000" stroke="none">
<path d="M2130 6799 c-178 -11 -323 -42 -522 -114 -559 -200 -1001 -699 -1142
-1286 -51 -217 -51 -212 -51 -919 l0 -665 51 -3 c123 -7 329 70 430 161 77 70
168 212 201 315 l28 87 6 405 c5 379 7 410 28 485 29 100 130 309 183 376 66
84 177 197 242 246 83 62 279 156 401 190 95 27 110 28 290 27 185 -2 193 -2
290 -34 129 -42 284 -119 360 -181 267 -213 410 -475 444 -814 20 -203 -15
-390 -109 -580 -64 -131 -125 -212 -307 -411 -60 -65 -170 -187 -244 -270
-234 -262 -371 -415 -484 -539 -61 -66 -144 -158 -185 -205 -41 -47 -120 -134
-176 -195 -229 -249 -296 -385 -296 -603 0 -200 115 -449 227 -492 23 -9 31
-4 88 58 35 37 99 108 142 157 44 50 129 144 190 210 61 66 142 156 180 200
38 44 120 134 181 200 62 66 156 170 210 232 104 118 348 389 549 608 325 356
414 463 476 570 48 85 119 216 119 221 0 3 11 29 24 57 13 29 27 67 30 84 4
18 12 35 17 38 5 4 9 17 9 31 0 14 7 41 16 62 8 20 22 87 30 147 8 61 19 135
24 165 13 83 12 173 -5 295 -9 61 -18 144 -21 184 -3 41 -11 86 -19 100 -7 15
-16 42 -20 61 -4 19 -22 80 -40 135 -131 398 -418 741 -820 978 -154 91 -327
150 -590 202 -103 21 -302 32 -435 24z"/>
<path d="M2667 5490 c-7 -10 -60 -70 -118 -132 -57 -63 -214 -237 -349 -388
-135 -150 -315 -351 -400 -445 -85 -94 -230 -254 -321 -355 -210 -234 -360
-401 -508 -563 -160 -177 -195 -220 -256 -313 -189 -288 -295 -645 -295 -994
0 -517 214 -1009 589 -1356 172 -159 416 -305 621 -372 471 -154 913 -141
1337 39 237 100 424 229 610 422 138 143 216 255 303 432 65 135 130 291 130
315 0 9 9 42 20 74 12 31 23 83 26 114 4 30 12 73 20 95 11 32 14 164 14 722
0 600 -2 684 -15 689 -23 8 -151 -10 -225 -33 -145 -45 -321 -193 -388 -326
-71 -143 -74 -162 -83 -570 -4 -203 -12 -399 -19 -435 -27 -157 -100 -325
-197 -455 -133 -179 -241 -274 -408 -359 -189 -96 -373 -134 -595 -123 -126 6
-189 22 -354 89 -125 51 -206 108 -327 228 -106 105 -184 214 -236 329 -19 42
-41 90 -49 108 -31 69 -64 264 -64 376 1 56 5 120 10 142 5 22 15 72 24 110
39 186 143 361 339 572 45 48 129 142 187 208 58 66 139 156 181 201 41 44
137 150 212 235 188 212 355 397 514 571 299 326 354 444 339 718 -4 63 -13
129 -20 145 -8 17 -18 45 -24 64 -28 86 -151 241 -191 241 -11 0 -26 -9 -34
-20z"/>
</g>
</svg>
